<?xml version="1.0" encoding="UTF-8"?>
<svg version="1.1" xmlns="http://www.w3.org/2000/svg" width="500" height="500">
<path d="M0 0 C1.78827209 -0.01270432 1.78827209 -0.01270432 3.6126709 -0.02566528 C6.84244968 -0.04487445 10.07186955 -0.05082523 13.30169463 -0.04891777 C16.01962162 -0.04879679 18.73749662 -0.05741257 21.45540887 -0.06569529 C27.88127902 -0.08483674 34.30701934 -0.08784795 40.73291016 -0.08105469 C47.31035193 -0.07442769 53.88723098 -0.09724503 60.46455878 -0.13436842 C66.15680711 -0.16530268 71.84887669 -0.17639988 77.54120713 -0.1725316 C80.92104692 -0.17048753 84.30010385 -0.17789116 87.6799221 -0.20042419 C111.32538719 -0.34071422 133.23704269 1.74847678 151.12036133 18.99414062 C161.74935245 30.63541662 166.4806761 46.28459331 166.44873047 61.90600586 C166.44860962 63.16392944 166.44848877 64.42185303 166.44836426 65.71789551 C166.44324829 67.02077515 166.43813232 68.32365479 166.43286133 69.66601562 C166.43185425 70.87777466 166.43084717 72.08953369 166.42980957 73.3380127 C166.42459586 77.84449211 166.41063463 82.35095799 166.39770508 86.85742188 C166.37708008 96.94304687 166.35645508 107.02867188 166.33520508 117.41992188 C135.31520508 117.41992188 104.29520508 117.41992188 72.33520508 117.41992188 C72.02270508 94.29492188 72.02270508 94.29492188 71.94726562 87.02490234 C71.91496484 85.11228498 71.88158958 83.19968533 71.84692383 81.28710938 C71.83755798 79.8109314 71.83755798 79.8109314 71.82800293 78.30493164 C71.71704349 72.99905296 71.48952064 68.91046234 68.33520508 64.41992188 C63.81456475 60.97092352 57.32179117 62.08644846 51.91796875 62.10424805 C49.90740668 62.10740663 47.89831968 62.08393571 45.88793945 62.05859375 C43.97658203 62.05762695 43.97658203 62.05762695 42.02661133 62.05664062 C40.86331299 62.05365967 39.70001465 62.05067871 38.50146484 62.04760742 C34.98454289 62.46115557 33.14561503 63.29975532 30.33520508 65.41992188 C27.8220793 69.18961054 28.04762582 72.16334321 28.06105042 76.52963257 C28.05581374 77.36579625 28.05057706 78.20195993 28.04518169 79.0634619 C28.03013621 81.8755264 28.02947555 84.68740967 28.02880859 87.49951172 C28.02119019 89.51152353 28.01276325 91.52353242 28.00358582 93.53553772 C27.98160306 99.00866732 27.97283689 104.48174104 27.96775937 109.9549098 C27.9641204 113.37233745 27.95788277 116.78975035 27.95075798 120.20717239 C27.92625083 132.12379858 27.91320875 144.04038115 27.90966797 155.95703125 C27.90603122 167.07417108 27.87612899 178.19103508 27.83426338 189.30809057 C27.7996032 198.84531492 27.78412027 208.38244767 27.78342193 217.9197346 C27.78262769 223.61920605 27.77382141 229.31839667 27.74542427 235.01780319 C27.71931677 240.37768496 27.71699756 245.73705157 27.73307991 251.0969677 C27.73490021 253.06542646 27.72815158 255.03391434 27.7122612 257.0023098 C27.69190342 259.68756933 27.70229103 262.37100897 27.72047424 265.0562439 C27.70067429 266.22779465 27.70067429 266.22779465 27.68047434 267.42301309 C27.74228125 271.41250815 28.17395584 273.21688023 30.68612576 276.38015175 C36.19005333 280.61813245 42.42841065 279.64091623 49.08520508 279.66992188 C50.2530957 279.69054687 51.42098633 279.71117187 52.62426758 279.73242188 C61.42876185 279.80824438 61.42876185 279.80824438 69.33520508 276.41992188 C71.24739033 272.7138155 71.6009223 269.57159848 71.65405273 265.4362793 C71.68385727 263.66500923 71.68385727 263.66500923 71.71426392 261.85795593 C71.72581512 260.59320938 71.73736633 259.32846283 71.74926758 258.02539062 C71.76863373 256.72289871 71.78799988 255.4204068 71.80795288 254.07844543 C71.85915026 250.62784837 71.89884184 247.17721243 71.93609619 243.72644043 C71.97621395 240.200343 72.02716556 236.67440303 72.07739258 233.1484375 C72.17502382 226.23899292 72.25463728 219.32967084 72.33520508 212.41992188 C63.42520508 212.41992188 54.51520508 212.41992188 45.33520508 212.41992188 C45.33520508 192.61992187 45.33520508 172.81992188 45.33520508 152.41992188 C85.26520508 152.41992188 125.19520508 152.41992188 166.33520508 152.41992188 C166.45611418 185.41915067 166.45611418 185.41915067 166.48168945 199.3203125 C166.49944286 208.89270894 166.52023527 218.46502577 166.56152344 228.03735352 C166.59158805 235.0109625 166.61081822 241.98450646 166.61747056 248.95817846 C166.62135419 252.64477341 166.63036893 256.33118247 166.65239525 260.01771736 C166.6768844 264.15064583 166.67716425 268.28325882 166.67578125 272.41625977 C166.69195999 274.2148645 166.69195999 274.2148645 166.70846558 276.04980469 C166.66685102 287.63526799 165.19756564 299.54707411 159.58520508 309.85742188 C159.23087402 310.52717041 158.87654297 311.19691895 158.51147461 311.88696289 C151.14999336 325.40169302 138.91159519 333.77112637 124.3127594 338.33822632 C109.03452138 342.68200633 93.41233999 342.86964654 77.65161133 342.81835938 C75.41739304 342.82038786 73.18317541 342.82330568 70.94895935 342.82705688 C66.29728812 342.83144475 61.64579134 342.82516513 56.99414062 342.81103516 C51.08995172 342.79395575 45.18617254 342.8037997 39.28199863 342.82175255 C34.67719038 342.83269544 30.07247611 342.82909623 25.46766472 342.82136917 C23.29319139 342.81939552 21.11870898 342.8217242 18.94424629 342.82880783 C-1.51763246 342.88086202 -21.1421482 341.99811668 -39.35351562 331.82763672 C-40.16158157 331.37689789 -40.96964752 330.92615906 -41.80220032 330.46176147 C-42.41685654 330.11795441 -43.03151276 329.77414734 -43.66479492 329.41992188 C-43.67066116 330.66225586 -43.6765274 331.90458984 -43.68257141 333.18457031 C-43.74004579 344.9526261 -43.81293431 356.72050146 -43.90050983 368.4883728 C-43.94503751 374.53683106 -43.98433153 380.58522468 -44.01123047 386.63378906 C-44.03744014 392.48243581 -44.07796474 398.33083142 -44.12798119 404.17932129 C-44.14453133 406.39893444 -44.15611874 408.6185909 -44.16240883 410.83825684 C-44.23926455 435.49007689 -47.27624081 458.14718329 -64.94213867 476.90429688 C-77.80291427 488.78713688 -92.78727684 494.16977265 -109.66479492 497.73242188 C-110.41011475 497.89210449 -111.15543457 498.05178711 -111.92333984 498.21630859 C-127.56709883 501.21675405 -143.92882362 500.57016135 -159.78588867 500.55273438 C-161.98291535 500.55341024 -164.17994196 500.5543826 -166.37696838 500.55563354 C-170.9547701 500.55709755 -175.53255215 500.55499829 -180.11035156 500.55029297 C-185.92723122 500.54459991 -191.74406468 500.54788037 -197.56094265 500.55386543 C-202.09015744 500.55750922 -206.61936159 500.55631502 -211.14857674 500.55373764 C-213.2912096 500.55307871 -215.43384348 500.55385984 -217.57647514 500.55621719 C-252.53965153 500.58625457 -252.53965153 500.58625457 -265.78979492 497.73242188 C-266.61616455 497.5587207 -267.44253418 497.38501953 -268.29394531 497.20605469 C-286.69849058 493.1212686 -305.91678338 484.85868967 -317.09448242 468.94726562 C-325.91553994 454.75019047 -330.48018072 440.59577588 -331.25463867 423.88476562 C-331.29414642 423.08104523 -331.33365417 422.27732483 -331.37435913 421.44924927 C-331.80921663 411.62389288 -331.81510236 401.79415599 -331.79516602 391.9609375 C-331.78969544 388.73628263 -331.79520605 385.51176064 -331.80151367 382.28710938 C-331.80085464 380.23502573 -331.79957713 378.18294218 -331.79760742 376.13085938 C-331.79963165 375.16755707 -331.80165588 374.20425476 -331.80374146 373.21176147 C-331.80058929 372.33218781 -331.79743713 371.45261414 -331.79418945 370.54638672 C-331.79339386 369.77096527 -331.79259827 368.99554382 -331.79177856 368.19662476 C-331.66479492 366.41992188 -331.66479492 366.41992188 -330.66479492 365.41992188 C-329.14660972 365.32413595 -327.62397096 365.2980404 -326.10276794 365.29966736 C-324.62402191 365.29760536 -324.62402191 365.29760536 -323.11540222 365.29550171 C-322.02496109 365.29909698 -320.93451996 365.30269226 -319.81103516 365.30639648 C-318.66972137 365.30625046 -317.52840759 365.30610443 -316.35250854 365.30595398 C-312.55944961 365.30665369 -308.76643908 365.31444881 -304.97338867 365.32226562 C-302.35164924 365.3241296 -299.72990946 365.3255536 -297.10816956 365.32655334 C-290.89977537 365.32966636 -284.69139871 365.33787936 -278.48301226 365.34790283 C-271.41662051 365.35906488 -264.35022794 365.36457465 -257.28382957 365.36959827 C-242.7441423 365.38006199 -228.20446885 365.39766087 -213.66479492 365.41992188 C-213.6502124 366.60021973 -213.63562988 367.78051758 -213.62060547 368.99658203 C-213.56246795 373.39141563 -213.48523611 377.78574514 -213.40234375 382.18017578 C-213.369167 384.07918086 -213.34111261 385.97828283 -213.31835938 387.87744141 C-213.28467974 390.61337422 -213.23235772 393.34842498 -213.17651367 396.08398438 C-213.17012375 396.92796783 -213.16373383 397.77195129 -213.15715027 398.64151001 C-213.03402723 403.61999052 -212.40410912 407.10075369 -209.66479492 411.41992188 C-205.72728082 414.71927361 -201.89868942 414.87429681 -196.94995117 414.85351562 C-195.84991005 414.8613784 -195.84991005 414.8613784 -194.72764587 414.86940002 C-193.18205019 414.87580135 -191.63640566 414.87450772 -190.09082031 414.8659668 C-187.73763474 414.85745926 -185.38688149 414.88623534 -183.03393555 414.91796875 C-181.52677481 414.91958118 -180.01960981 414.91900243 -178.51245117 414.91601562 C-177.4668679 414.93286659 -177.4668679 414.93286659 -176.40016174 414.95005798 C-171.37774449 414.87911376 -168.41340005 413.75514177 -164.66479492 410.41992188 C-162.84079833 406.08763285 -162.40872306 402.3583328 -162.39013672 397.68359375 C-162.38502579 397.03886612 -162.37991486 396.39413849 -162.37464905 395.72987366 C-162.36084169 393.61604316 -162.36170272 391.50254187 -162.36401367 389.38867188 C-162.36012249 387.9094633 -162.35578695 386.43025584 -162.35102844 384.9510498 C-162.34358577 381.85779184 -162.34384373 378.76464807 -162.34912109 375.67138672 C-162.35491996 371.71707041 -162.33796559 367.76322184 -162.31477642 363.80898285 C-162.3000126 360.75654389 -162.29917084 357.704217 -162.30228615 354.65174866 C-162.30177449 353.19416882 -162.29656599 351.73658246 -162.28647423 350.27903748 C-162.27407192 348.23780259 -162.28092238 346.19747152 -162.29248047 344.15625 C-162.29185104 342.9974231 -162.29122162 341.83859619 -162.29057312 340.64465332 C-162.81380111 336.1359108 -164.27044616 332.72431265 -167.60229492 329.60742188 C-172.04697988 327.04836084 -176.59143632 327.26918289 -181.60424805 327.26220703 C-182.4017598 327.25712631 -183.19927155 327.25204559 -184.02095032 327.24681091 C-185.7533102 327.2361174 -187.48568382 327.22749323 -189.21806335 327.22069168 C-191.97955321 327.20884057 -194.740891 327.18936343 -197.50231934 327.16757202 C-205.35476427 327.10622627 -213.20719878 327.05232412 -221.05981445 327.01855469 C-225.86919636 326.99732133 -230.67830841 326.96178177 -235.48753357 326.91779709 C-237.3019233 326.90384205 -239.11636086 326.89496226 -240.93080139 326.89174271 C-265.25447271 326.84408867 -293.4483275 324.63638929 -311.66479492 306.41992188 C-327.88979437 287.58089473 -332.82205539 265.29951841 -332.81005859 240.8840332 C-332.81341721 239.88254242 -332.81677582 238.88105164 -332.82023621 237.84921265 C-332.82966735 234.56677988 -332.83168544 231.28439856 -332.83276367 228.00195312 C-332.83598198 225.69805379 -332.83934647 223.39415466 -332.84284973 221.09025574 C-332.84882164 216.26971971 -332.85069166 211.44920157 -332.85009766 206.62866211 C-332.84999621 200.48728387 -332.86363888 194.3460217 -332.88086987 188.20467091 C-332.89205326 183.44737738 -332.89401491 178.69011134 -332.89348793 173.93280602 C-332.89465887 171.67046395 -332.89903018 169.40812096 -332.9068203 167.14579201 C-332.98930429 140.715732 -331.19317406 114.42974025 -311.66479492 94.41992188 C-286.62193668 72.21880641 -255.29858887 71.10020988 -223.55932617 71.11914062 C-221.51880035 71.11682229 -219.47827876 71.11331779 -217.43775481 71.10973388 C-211.03384334 71.09870566 -204.62999055 71.09816252 -198.22607422 71.10424805 C-191.67944596 71.11027484 -185.13303333 71.09799435 -178.58644181 71.07667798 C-172.91282398 71.058902 -167.23927375 71.05308567 -161.56562918 71.05631572 C-158.20046207 71.05810437 -154.8355694 71.05436889 -151.47040749 71.04160118 C-120.83985562 70.93964567 -92.24157304 73.56931446 -67.66479492 93.41992188 C-67.65077637 91.62929321 -67.65077637 91.62929321 -67.63647461 89.80249023 C-67.59608826 85.30115743 -67.53020424 80.80047381 -67.45727539 76.29956055 C-67.42934408 74.36507616 -67.40799374 72.43048355 -67.39379883 70.49584961 C-67.24231452 50.99981951 -65.06448299 33.4559862 -51.03588867 18.73632812 C-37.0263766 5.04993495 -19.29502001 -0.0516957 0 0 Z M-210.66479492 158.41992188 C-214.30669828 162.93303996 -215.16574972 165.96587619 -215.16650391 171.72290039 C-215.17190689 172.42775574 -215.17730988 173.13261108 -215.18287659 173.85882568 C-215.19531342 176.17259613 -215.17890986 178.48510996 -215.16088867 180.79882812 C-215.16104376 182.41495326 -215.1625344 184.03107876 -215.16529846 185.64720154 C-215.16668012 189.02725756 -215.15416248 192.40688804 -215.13134766 195.78686523 C-215.10294063 200.11348906 -215.10570949 204.43940749 -215.11843777 208.76608372 C-215.12540072 212.10074359 -215.11759905 215.43524115 -215.10518074 218.76988029 C-215.10067382 220.36503412 -215.1003228 221.96020542 -215.10424614 223.55536079 C-215.10716509 225.78604853 -215.09062104 228.01577218 -215.06884766 230.24633789 C-215.06344467 231.51397476 -215.05804169 232.78161163 -215.05247498 234.08766174 C-214.49083245 238.91519665 -212.74813821 241.41991269 -209.22729492 244.66992188 C-204.64169011 247.80155443 -200.21974385 247.5700172 -194.80126953 247.57763672 C-194.01190506 247.58271744 -193.22254059 247.58779816 -192.40925598 247.59303284 C-190.69490094 247.60372534 -188.98053204 247.61234991 -187.26615715 247.61915207 C-184.53434545 247.63100162 -181.80268759 247.65047783 -179.07093811 247.67227173 C-171.30304264 247.73362659 -163.53515812 247.78754391 -155.76708984 247.82128906 C-151.00958144 247.84250692 -146.25234665 247.87803407 -141.49499702 247.92204666 C-139.69931881 247.93601227 -137.90359211 247.94488401 -136.10786247 247.94810104 C-110.6350826 247.998492 -88.08782375 252.13790266 -66.66479492 266.41992188 C-66.66479492 246.61992187 -66.66479492 226.81992188 -66.66479492 206.41992188 C-98.34479492 206.08992188 -130.02479492 205.75992188 -162.66479492 205.41992188 C-163.15979492 184.62992188 -163.15979492 184.62992188 -163.66479492 163.41992188 C-168.35017101 157.35121182 -168.35017101 157.35121182 -174.66479492 155.41992188 C-179.47099895 155.01150889 -184.28040592 155.09548059 -189.10229492 155.10742188 C-190.39973633 155.09130859 -191.69717773 155.07519531 -193.03393555 155.05859375 C-202.32727823 154.92328095 -202.32727823 154.92328095 -210.66479492 158.41992188 Z " fill="#F54A3E" transform="translate(332.664794921875,-0.419921875)"/>
<path d="M0 0 C1.78827209 -0.01270432 1.78827209 -0.01270432 3.6126709 -0.02566528 C6.84244968 -0.04487445 10.07186955 -0.05082523 13.30169463 -0.04891777 C16.01962162 -0.04879679 18.73749662 -0.05741257 21.45540887 -0.06569529 C27.88127902 -0.08483674 34.30701934 -0.08784795 40.73291016 -0.08105469 C47.31035193 -0.07442769 53.88723098 -0.09724503 60.46455878 -0.13436842 C66.15680711 -0.16530268 71.84887669 -0.17639988 77.54120713 -0.1725316 C80.92104692 -0.17048753 84.30010385 -0.17789116 87.6799221 -0.20042419 C111.32538719 -0.34071422 133.23704269 1.74847678 151.12036133 18.99414062 C161.74935245 30.63541662 166.4806761 46.28459331 166.44873047 61.90600586 C166.44860962 63.16392944 166.44848877 64.42185303 166.44836426 65.71789551 C166.44324829 67.02077515 166.43813232 68.32365479 166.43286133 69.66601562 C166.43185425 70.87777466 166.43084717 72.08953369 166.42980957 73.3380127 C166.42459586 77.84449211 166.41063463 82.35095799 166.39770508 86.85742188 C166.37708008 96.94304687 166.35645508 107.02867188 166.33520508 117.41992188 C135.31520508 117.41992188 104.29520508 117.41992188 72.33520508 117.41992188 C72.02270508 94.29492187 72.02270508 94.29492187 71.94726562 87.02490234 C71.91496484 85.11228498 71.88158958 83.19968533 71.84692383 81.28710938 C71.84067993 80.30299072 71.83443604 79.31887207 71.82800293 78.30493164 C71.71704349 72.99905296 71.48952064 68.91046234 68.33520508 64.41992188 C63.81456475 60.97092352 57.32179117 62.08644846 51.91796875 62.10424805 C49.90740668 62.10740663 47.89831968 62.08393571 45.88793945 62.05859375 C43.97658203 62.05762695 43.97658203 62.05762695 42.02661133 62.05664062 C40.86331299 62.05365967 39.70001465 62.05067871 38.50146484 62.04760742 C34.98454289 62.46115557 33.14561503 63.29975532 30.33520508 65.41992188 C27.8220793 69.18961054 28.04762582 72.16334321 28.06105042 76.52963257 C28.05581374 77.36579625 28.05057706 78.20195993 28.04518169 79.0634619 C28.03013621 81.8755264 28.02947555 84.68740967 28.02880859 87.49951172 C28.02119019 89.51152353 28.01276325 91.52353242 28.00358582 93.53553772 C27.98160306 99.00866732 27.97283689 104.48174104 27.96775937 109.9549098 C27.9641204 113.37233745 27.95788277 116.78975035 27.95075798 120.20717239 C27.92625083 132.12379858 27.91320875 144.04038115 27.90966797 155.95703125 C27.90603122 167.07417108 27.87612899 178.19103508 27.83426338 189.30809057 C27.7996032 198.84531492 27.78412027 208.38244767 27.78342193 217.9197346 C27.78262769 223.61920605 27.77382141 229.31839667 27.74542427 235.01780319 C27.71931677 240.37768496 27.71699756 245.73705157 27.73307991 251.0969677 C27.73490021 253.06542646 27.72815158 255.03391434 27.7122612 257.0023098 C27.69190342 259.68756933 27.70229103 262.37100897 27.72047424 265.0562439 C27.70067429 266.22779465 27.70067429 266.22779465 27.68047434 267.42301309 C27.74228125 271.41250815 28.17395584 273.21688023 30.68612576 276.38015175 C36.19005333 280.61813245 42.42841065 279.64091623 49.08520508 279.66992188 C50.2530957 279.69054687 51.42098633 279.71117187 52.62426758 279.73242188 C61.42876185 279.80824438 61.42876185 279.80824438 69.33520508 276.41992188 C71.24739033 272.7138155 71.6009223 269.57159848 71.65405273 265.4362793 C71.68385727 263.66500923 71.68385727 263.66500923 71.71426392 261.85795593 C71.72581512 260.59320938 71.73736633 259.32846283 71.74926758 258.02539062 C71.76863373 256.72289871 71.78799988 255.4204068 71.80795288 254.07844543 C71.85915026 250.62784837 71.89884184 247.17721243 71.93609619 243.72644043 C71.97621395 240.200343 72.02716556 236.67440303 72.07739258 233.1484375 C72.17502382 226.23899292 72.25463728 219.32967084 72.33520508 212.41992188 C63.42520508 212.41992188 54.51520508 212.41992188 45.33520508 212.41992188 C45.33520508 192.61992187 45.33520508 172.81992188 45.33520508 152.41992188 C85.26520508 152.41992188 125.19520508 152.41992188 166.33520508 152.41992188 C166.45611418 185.41915067 166.45611418 185.41915067 166.48168945 199.3203125 C166.49944286 208.89270894 166.52023527 218.46502577 166.56152344 228.03735352 C166.59158805 235.0109625 166.61081822 241.98450646 166.61747056 248.95817846 C166.62135419 252.64477341 166.63036893 256.33118247 166.65239525 260.01771736 C166.6768844 264.15064583 166.67716425 268.28325882 166.67578125 272.41625977 C166.68656708 273.61532959 166.69735291 274.81439941 166.70846558 276.04980469 C166.66685102 287.63526799 165.19756564 299.54707411 159.58520508 309.85742188 C159.23087402 310.52717041 158.87654297 311.19691895 158.51147461 311.88696289 C151.14999336 325.40169302 138.91159519 333.77112637 124.3127594 338.33822632 C109.03452138 342.68200633 93.41233999 342.86964654 77.65161133 342.81835938 C75.41739304 342.82038786 73.18317541 342.82330568 70.94895935 342.82705688 C66.29728812 342.83144475 61.64579134 342.82516513 56.99414062 342.81103516 C51.08995172 342.79395575 45.18617254 342.8037997 39.28199863 342.82175255 C34.67719038 342.83269544 30.07247611 342.82909623 25.46766472 342.82136917 C23.29319139 342.81939552 21.11870898 342.8217242 18.94424629 342.82880783 C0.55129093 342.87559877 -17.7593589 342.35086717 -34.66479492 334.41992188 C-35.63545898 334.0821875 -36.60612305 333.74445313 -37.60620117 333.39648438 C-40.75612958 332.06123734 -42.48301122 331.07502643 -44.66479492 328.41992188 C-46.2478785 323.362545 -46.25073862 317.95498465 -46.50952148 312.70019531 C-47.47766275 298.48252323 -53.23726099 280.79507955 -64.24455261 271.16230774 C-67.17902626 267.83724437 -67.27618221 266.43637302 -67.23242188 262.0690918 C-67.23204422 260.80816208 -67.23166656 259.54723236 -67.23127747 258.24809265 C-67.20574817 256.88218182 -67.17966825 255.51628118 -67.15307617 254.15039062 C-67.14374351 252.74507406 -67.13662953 251.33974116 -67.13163757 249.93440247 C-67.11260264 246.24653728 -67.06353463 242.55966637 -67.00811768 238.87219238 C-66.95684796 235.1050359 -66.93410722 231.33771777 -66.90893555 227.5703125 C-66.85540991 220.18634451 -66.76750563 212.80339952 -66.66479492 205.41992188 C-59.73479492 205.41992188 -52.80479492 205.41992188 -45.66479492 205.41992188 C-45.78398147 197.84333638 -45.90828137 190.26685739 -46.03710938 182.69042969 C-46.0801466 180.11851215 -46.12184028 177.54657174 -46.16210938 174.97460938 C-46.22057685 171.25578953 -46.28404158 167.5370816 -46.34838867 163.81835938 C-46.36510117 162.68755951 -46.38181366 161.55675964 -46.39903259 160.39169312 C-46.70985908 143.2479762 -47.87079537 127.47725566 -55.47729492 111.91992188 C-55.78417236 111.28586426 -56.0910498 110.65180664 -56.40722656 109.99853516 C-58.29282764 106.36287101 -60.3402961 103.69981226 -63.2565918 100.81860352 C-67.39020507 96.13514032 -67.6489749 92.40014339 -67.48901367 86.32226562 C-67.48859573 85.37033829 -67.4881778 84.41841095 -67.48774719 83.43763733 C-67.47940111 81.42972152 -67.45404771 79.42181192 -67.41259766 77.41430664 C-67.35292854 74.38954141 -67.3510012 71.36901546 -67.3581543 68.34375 C-67.26144149 49.59737453 -64.42516966 32.78517961 -51.03588867 18.73632812 C-37.0263766 5.04993495 -19.29502001 -0.0516957 0 0 Z " fill="#333232" transform="translate(332.664794921875,-0.419921875)"/>
<path d="M0 0 C2.22378644 3.33567965 3.10111849 6.48525118 4.0625 10.3125 C4.23587891 10.94478516 4.40925781 11.57707031 4.58789062 12.22851562 C7.39798386 23.30738896 7.14949084 35.0418573 7.09765625 46.3984375 C7.0962413 47.59941071 7.09482635 48.80038391 7.09336853 50.03775024 C7.08783852 53.81686049 7.07529984 57.59590813 7.0625 61.375 C7.05747593 63.96093664 7.05291463 66.54687421 7.04882812 69.1328125 C7.03789216 75.42189581 7.02122567 81.71094343 7 88 C-7.68326201 88.83057625 -22.31049308 89.14962066 -37.015625 89.1328125 C-39.13555919 89.13348827 -41.25549331 89.13446055 -43.37542725 89.13571167 C-47.76526648 89.13716939 -52.15508508 89.1350927 -56.54492188 89.13037109 C-62.18175979 89.12460388 -67.81855081 89.12800838 -73.45538712 89.13394356 C-77.8080481 89.13754173 -82.16069776 89.13641526 -86.51335907 89.13381577 C-88.59468339 89.13314805 -90.67600872 89.13396951 -92.75733185 89.13629532 C-95.64065837 89.13881711 -98.52390597 89.13499128 -101.40722656 89.12939453 C-102.69885208 89.13243088 -102.69885208 89.13243088 -104.01657104 89.13552856 C-109.88572245 89.11427755 -109.88572245 89.11427755 -111 88 C-111.11097725 84.96923242 -111.16167102 81.95743306 -111.17578125 78.92578125 C-111.19898982 77.04230666 -111.22310757 75.15884309 -111.24804688 73.27539062 C-111.28310356 70.29753363 -111.31246574 67.3200788 -111.32592773 64.34204102 C-111.34144303 61.47362014 -111.38168886 58.6063869 -111.42578125 55.73828125 C-111.42387283 54.85368729 -111.42196442 53.96909332 -111.41999817 53.05769348 C-111.53093245 47.42592436 -112.40501 44.37699528 -116 40 C-113.53199953 41.15173355 -111.95216435 42.04783565 -110 44 C-109.67 58.52 -109.34 73.04 -109 88 C-78.97 88 -48.94 88 -18 88 C-18 87.34 -18 86.68 -18 86 C-10.41 86 -2.82 86 5 86 C4.91414045 77.82798545 4.82020861 69.65618172 4.71247292 61.48443031 C4.66274893 57.68903813 4.61641906 53.89367061 4.578125 50.09814453 C4.54096741 46.42810026 4.49452977 42.75827523 4.44193649 39.08842087 C4.42355293 37.69559999 4.40838733 36.30273242 4.39665604 34.90983963 C5.09184842 22.27474193 5.09184842 22.27474193 1 11 C0.76636119 9.15108054 0.58696365 7.29511969 0.4375 5.4375 C0.35371094 4.42558594 0.26992188 3.41367188 0.18359375 2.37109375 C0.12300781 1.58863281 0.06242187 0.80617188 0 0 Z " fill="#CB524B" transform="translate(280,117)"/>
<path d="M0 0 C1.72267342 0.73059631 1.72267342 0.73059631 3.48014832 1.47595215 C7.86227606 3.11111283 11.67634634 3.42402494 16.31762695 3.38476562 C17.50254982 3.39282478 17.50254982 3.39282478 18.71141052 3.40104675 C20.41476828 3.41077249 22.11817528 3.41378477 23.821558 3.41069031 C26.53705027 3.4061688 29.2519054 3.42033944 31.96733093 3.43908691 C37.74904367 3.47573627 43.53068836 3.48952679 49.3125 3.5 C55.98366747 3.51217341 62.65452297 3.53428942 69.32555199 3.58000183 C71.96564782 3.59332052 74.60532294 3.58944541 77.24543762 3.58459473 C91.10114561 3.62905467 104.70021938 4.95170653 118 9 C118 9.33 118 9.66 118 10 C110.25 10.125 110.25 10.125 108 9 C106.29297265 8.93003986 104.58331997 8.91559846 102.875 8.9375 C101.50988281 8.95103516 101.50988281 8.95103516 100.1171875 8.96484375 C99.06917969 8.98224609 99.06917969 8.98224609 98 9 C98 8.01 98 7.02 98 6 C96.35414917 6.00666183 96.35414917 6.00666183 94.67504883 6.01345825 C84.31738778 6.05406183 73.95974295 6.084012 63.60202026 6.10362434 C58.27745233 6.11404629 52.95294883 6.12817651 47.62841797 6.15087891 C42.48667775 6.17266389 37.34499938 6.18458057 32.20321655 6.18975449 C30.24489367 6.19344009 28.28657403 6.20063711 26.32827759 6.21146011 C23.57815322 6.22605017 20.82828205 6.2279748 18.078125 6.22705078 C17.27467148 6.23424133 16.47121796 6.24143188 15.64341736 6.24884033 C10.45006349 6.23004964 5.99558155 5.43467524 1 4 C0.67 2.68 0.34 1.36 0 0 Z " fill="#D8554B" transform="translate(122,243)"/>
<path d="M0 0 C1.23750708 0.00138269 1.23750708 0.00138269 2.50001431 0.00279331 C3.44377422 0.00141865 4.38753414 0.00004398 5.35989285 -0.00137234 C6.40358028 0.00222294 7.44726772 0.00581821 8.52258205 0.00952244 C9.61512798 0.00937641 10.70767391 0.00923038 11.83332729 0.00907993 C15.46405899 0.00977961 19.09474012 0.01757454 22.72546291 0.02539158 C25.2351011 0.02725557 27.74473964 0.02867956 30.25437832 0.0296793 C36.1971526 0.03311435 42.1399105 0.0410051 48.08267635 0.05102879 C55.50982591 0.0632853 62.93697771 0.06866991 70.36413479 0.0742197 C83.6187014 0.08495972 96.87325287 0.101847 110.12780666 0.12304783 C110.12780666 0.45304783 110.12780666 0.78304783 110.12780666 1.12304783 C73.82780666 1.12304783 37.52780666 1.12304783 0.12780666 1.12304783 C-0.20219334 14.65304783 -0.53219334 28.18304783 -0.87219334 42.12304783 C-1.20219334 42.12304783 -1.53219334 42.12304783 -1.87219334 42.12304783 C-2.81276341 37.36555662 -3.01837856 32.7483916 -3.00500584 27.91601658 C-3.00596256 27.15001637 -3.00691929 26.38401615 -3.00790501 25.59480381 C-3.00858197 23.98711152 -3.00676162 22.37941642 -3.00256443 20.77172947 C-2.99717225 18.30088361 -3.00254457 15.83021649 -3.00891209 13.35937595 C-3.00825194 11.79492243 -3.0069721 10.23046901 -3.00500584 8.66601658 C-3.00703007 7.92441792 -3.0090543 7.18281925 -3.01113987 6.4187479 C-2.98234858 0.19601155 -2.98234858 0.19601155 0 0 Z " fill="#C65C54" transform="translate(3.8721933364868164,364.8769521713257)"/>
<path d="M0 0 C1.14533203 -0.01611328 2.29066406 -0.03222656 3.47070312 -0.04882812 C9.73924764 -0.05245366 14.40908463 0.27147036 19.9375 3.3125 C17.36540012 4.59854994 16.68614801 4.00576782 13.9375 3.3125 C9.16997838 3.05686881 4.39866057 3.08117447 -0.375 3.0625 C-1.68146484 3.041875 -2.98792969 3.02125 -4.33398438 3 C-13.66992888 2.82662643 -13.66992888 2.82662643 -22.0625 6.3125 C-25.15907427 10.37218754 -25.43731066 13.46272467 -25.43481445 18.50195312 C-25.43846512 19.20666245 -25.44211578 19.91137177 -25.44587708 20.63743591 C-25.45395327 22.95645588 -25.44039749 25.2747706 -25.42578125 27.59375 C-25.42526229 29.21130371 -25.42578139 30.82885805 -25.42729187 32.44641113 C-25.42720228 35.83237149 -25.41679959 39.2180931 -25.39868164 42.60400391 C-25.37599492 46.93838769 -25.37545178 51.27242285 -25.38219929 55.60684967 C-25.38554501 58.94577112 -25.37889781 62.28461347 -25.36907005 65.6235199 C-25.36522818 67.22146694 -25.36406563 68.81942279 -25.3656559 70.41737366 C-25.36602787 72.65276777 -25.35337 74.88771942 -25.3371582 77.12304688 C-25.33255081 78.39369995 -25.32794342 79.66435303 -25.32319641 80.97351074 C-25.07222402 84.1879551 -24.44680093 86.42418946 -23.0625 89.3125 C-24.7125 88.9825 -26.3625 88.6525 -28.0625 88.3125 C-28.00123375 78.24600783 -27.9240877 68.17977375 -27.82678509 58.11356163 C-27.78209769 53.43916937 -27.74283796 48.76486394 -27.71606445 44.09033203 C-27.69001521 39.57736078 -27.64960133 35.06472396 -27.59931374 30.55195999 C-27.58265598 28.83206982 -27.5711349 27.11212181 -27.56488609 25.39216232 C-27.55523301 22.9790229 -27.52716028 20.56673692 -27.49487305 18.15380859 C-27.49630814 17.44602264 -27.49774323 16.73823669 -27.4992218 16.00900269 C-27.41236019 11.40512779 -26.38564526 8.27108581 -24.0625 4.3125 C-23.0725 4.3125 -22.0825 4.3125 -21.0625 4.3125 C-21.0625 3.6525 -21.0625 2.9925 -21.0625 2.3125 C-14.00518343 0.13901968 -7.35327358 -0.02076023 0 0 Z " fill="#D7564E" transform="translate(144.0625,152.6875)"/>
<path d="M0 0 C0.66 0.33 1.32 0.66 2 1 C2.37890625 3.6875 2.37890625 3.6875 2.5625 7 C2.45431019 10.81734612 2.45431019 10.81734612 4 14 C4.09391296 15.90243762 4.11743658 17.80838459 4.11352539 19.71313477 C4.11344986 20.9343251 4.11337433 22.15551544 4.11329651 23.41371155 C4.10818911 24.75627686 4.10297311 26.09884175 4.09765625 27.44140625 C4.09579199 28.80761158 4.09436813 30.17381757 4.09336853 31.5400238 C4.08954394 35.14201695 4.07971417 38.74397 4.06866455 42.34594727 C4.05844916 46.01903745 4.05387064 49.69213409 4.04882812 53.36523438 C4.03809184 60.57684334 4.02049553 67.78841095 4 75 C-3.59 75 -11.18 75 -19 75 C-19 74.67 -19 74.34 -19 74 C-12.07 74 -5.14 74 2 74 C1.88028582 66.51497653 1.75597055 59.03004751 1.62768555 51.54516602 C1.58480366 49.00742584 1.54310395 46.46966537 1.50268555 43.93188477 C1.26826711 29.26770902 0.92532961 14.63837382 0 0 Z " fill="#502C29" transform="translate(285,131)"/>
<path d="M0 0 C0.66 0 1.32 0 2 0 C3.40607756 2.81215512 3.11950486 5.1404422 3.11352539 8.28564453 C3.11367142 8.92967224 3.11381744 9.57369995 3.1139679 10.23724365 C3.1132704 12.36913402 3.10548566 14.50093737 3.09765625 16.6328125 C3.09579149 18.10968986 3.09436786 19.58656784 3.09336853 21.06344604 C3.08954792 24.95312199 3.07972152 28.84276067 3.06866455 32.73242188 C3.05844064 36.70051571 3.05386881 40.66861555 3.04882812 44.63671875 C3.03809885 52.42449616 3.02102789 60.21224286 3 68 C2.34 68 1.68 68 1 68 C0.67 45.56 0.34 23.12 0 0 Z " fill="#D8574C" transform="translate(170,334)"/>
<path d="M0 0 C1.4540625 0.0309375 1.4540625 0.0309375 2.9375 0.0625 C1.6175 0.3925 0.2975 0.7225 -1.0625 1.0625 C-1.3925 14.5925 -1.7225 28.1225 -2.0625 42.0625 C-2.3925 42.0625 -2.7225 42.0625 -3.0625 42.0625 C-4.00307007 37.30500879 -4.20868522 32.68784378 -4.1953125 27.85546875 C-4.19626923 27.08946854 -4.19722595 26.32346832 -4.19821167 25.53425598 C-4.19888863 23.92656369 -4.19706829 22.31886859 -4.19287109 20.71118164 C-4.18747891 18.24033578 -4.19285124 15.76966866 -4.19921875 13.29882812 C-4.19855861 11.7343746 -4.19727876 10.16992118 -4.1953125 8.60546875 C-4.19733673 7.86387009 -4.19936096 7.12227142 -4.20144653 6.35820007 C-4.17242246 0.08515148 -4.17242246 0.08515148 0 0 Z " fill="#EE948D" transform="translate(5.0625,364.9375)"/>
<path d="M0 0 C-0.33 0.99 -0.66 1.98 -1 3 C-4.62129825 4.55492975 -8.73312428 4.12618839 -12.609375 4.09765625 C-13.33618469 4.0962413 -14.06299438 4.09482635 -14.81182861 4.09336853 C-17.12459494 4.08778792 -19.43726312 4.07523904 -21.75 4.0625 C-23.32161318 4.05748249 -24.89322789 4.05292002 -26.46484375 4.04882812 C-30.30993343 4.03782485 -34.1549501 4.02057361 -38 4 C-38 3.34 -38 2.68 -38 2 C-36.9805127 1.97494385 -35.96102539 1.9498877 -34.91064453 1.92407227 C-31.13479646 1.83002996 -27.35913373 1.72980163 -23.58349609 1.62768555 C-21.94812347 1.58432462 -20.31270523 1.54265039 -18.67724609 1.50268555 C-16.32896159 1.44501088 -13.98090696 1.38130871 -11.6328125 1.31640625 C-10.89942657 1.29969376 -10.16604065 1.28298126 -9.41043091 1.26576233 C-6.08044689 1.16816946 -3.14418453 0 0 0 Z " fill="#D5534B" transform="translate(166,413)"/>
<path d="M0 0 C3.96 0 7.92 0 12 0 C12 0.99 12 1.98 12 3 C13.093125 2.979375 14.18625 2.95875 15.3125 2.9375 C19 3 19 3 22 4 C23.33363703 4.14403348 24.67218046 4.24590423 26.01171875 4.31640625 C26.76904297 4.35830078 27.52636719 4.40019531 28.30664062 4.44335938 C29.48516602 4.50233398 29.48516602 4.50233398 30.6875 4.5625 C31.88342773 4.62727539 31.88342773 4.62727539 33.10351562 4.69335938 C35.06881447 4.79927368 37.03438496 4.90012551 39 5 C39 5.66 39 6.32 39 7 C25.85696057 7.86341135 12.37775136 5.46806634 0 1 C0 0.67 0 0.34 0 0 Z " fill="#D75349" transform="translate(51,492)"/>
<path d="M0 0 C0.99 0.495 0.99 0.495 2 1 C2 3.97 2 6.94 2 10 C2.66 10 3.32 10 4 10 C5.66054831 16.28636144 6.89309248 22.59406714 8 29 C8.66 29 9.32 29 10 29 C10 30.65 10 32.3 10 34 C2.67412859 25.30720214 -0.21955243 11.19717372 0 0 Z " fill="#DB564B" transform="translate(1,256)"/>
<path d="M0 0 C7.6700283 0.4302337 14.65896942 1.74231361 22 4 C18.46198023 5.06689731 15.75662558 4.73257208 12.10546875 4.19140625 C8.93011285 3.90273753 6.12484393 4.41409176 3 5 C3.33 4.34 3.66 3.68 4 3 C2.68 2.34 1.36 1.68 0 1 C0 0.67 0 0.34 0 0 Z " fill="#DE564B" transform="translate(215,73)"/>
<path d="M0 0 C2.33058639 3.49587959 3.19132 6.92041315 4.1875 10.9375 C4.47270508 12.01161133 4.47270508 12.01161133 4.76367188 13.10742188 C5.6919477 16.80339833 6.1215946 19.36551019 5 23 C3.05662363 20.08493545 2.72325333 19.17028308 2.4375 15.875 C2.43313101 12.22536034 2.43313101 12.22536034 1 11 C0.76636119 9.15108054 0.58696365 7.29511969 0.4375 5.4375 C0.35371094 4.42558594 0.26992188 3.41367188 0.18359375 2.37109375 C0.12300781 1.58863281 0.06242187 0.80617188 0 0 Z " fill="#C64E47" transform="translate(280,117)"/>
<path d="M0 0 C2.475 0.495 2.475 0.495 5 1 C5.2475 1.94875 5.495 2.8975 5.75 3.875 C6.66239093 7.05852032 6.66239093 7.05852032 8.9375 8.1875 C9.618125 8.455625 10.29875 8.72375 11 9 C12 10 13 11 14 12 C14.99 12.33 15.98 12.66 17 13 C17.33 13.99 17.66 14.98 18 16 C10.12396907 13.27742141 4.10355909 7.1366245 0 0 Z " fill="#DB5D52" transform="translate(16,468)"/>
<path d="M0 0 C-0.66666667 1.33333333 -1.33333333 2.66666667 -2 4 C-2.2578125 4.6909375 -2.515625 5.381875 -2.78125 6.09375 C-4 8 -4 8 -6.1640625 8.609375 C-6.97617187 8.65578125 -7.78828125 8.7021875 -8.625 8.75 C-9.44226563 8.80671875 -10.25953125 8.8634375 -11.1015625 8.921875 C-11.72804688 8.94765625 -12.35453125 8.9734375 -13 9 C-4.5 0 -4.5 0 0 0 Z " fill="#E55A50" transform="translate(35,85)"/>
<path d="M0 0 C5.66437729 0.4968752 9.75860173 1.67048966 15 4 C16.98821313 4.39764263 18.98732362 4.75455166 21 5 C21 5.66 21 6.32 21 7 C15.85404946 6.42381249 11.44921945 5.25256722 6.5625 3.4375 C5.32628906 2.98246094 4.09007812 2.52742188 2.81640625 2.05859375 C1.88699219 1.70925781 0.95757812 1.35992187 0 1 C0 0.67 0 0.34 0 0 Z " fill="#D75F55" transform="translate(37,316)"/>
<path d="M0 0 C-0.61875 0.2475 -1.2375 0.495 -1.875 0.75 C-4.35068687 2.20628639 -4.95125002 3.37812506 -6 6 C-6.721875 5.814375 -7.44375 5.62875 -8.1875 5.4375 C-11.12826973 4.98004693 -13.14103058 5.26483643 -16 6 C-13.75539393 3.50439964 -11.61479403 2.1294516 -8.5625 0.75 C-7.80066406 0.39421875 -7.03882813 0.0384375 -6.25390625 -0.328125 C-3.72027666 -1.08338373 -2.45814874 -0.87351072 0 0 Z " fill="#E35E56" transform="translate(51,79)"/>
<path d="M0 0 C0 3.39883637 -0.94218431 4.54739133 -2.8515625 7.2421875 C-4.53471007 9.81843378 -5.78391164 12.57253558 -7.0703125 15.36328125 C-8 17 -8 17 -10 18 C-8.65403304 11.12061334 -4.97724618 4.97724618 0 0 Z " fill="#D85C57" transform="translate(17,99)"/>
<path d="M0 0 C0.2475 0.53625 0.495 1.0725 0.75 1.625 C2.29771276 4.56565424 4.14422066 7.24444886 6 10 C7.01059521 11.66026356 8.01453001 13.32470102 9 15 C8.34 15 7.68 15 7 15 C5.36860063 13.07412421 3.86276775 11.15673283 2.375 9.125 C1.95476563 8.56941406 1.53453125 8.01382812 1.1015625 7.44140625 C-2 3.26235288 -2 3.26235288 -2 1 C-1.34 0.67 -0.68 0.34 0 0 Z " fill="#DC5A56" transform="translate(14,291)"/>
<path d="M0 0 C3.59634744 3.49359465 6.83451967 7.11098131 10 11 C9.67 11.66 9.34 12.32 9 13 C7.62437146 11.71034824 6.29233607 10.37310707 5 9 C5 8.34 5 7.68 5 7 C3.68 7 2.36 7 1 7 C0.67 4.69 0.34 2.38 0 0 Z " fill="#D2524B" transform="translate(264,93)"/>
<path d="M0 0 C3.96 0 7.92 0 12 0 C12 0.99 12 1.98 12 3 C12.99 3 13.98 3 15 3 C14.67 3.66 14.34 4.32 14 5 C9.38 3.68 4.76 2.36 0 1 C0 0.67 0 0.34 0 0 Z " fill="#E0584E" transform="translate(51,492)"/>
<path d="M0 0 C3.51855159 1.40742064 4.38612834 2.66466523 6 6 C6.99 6.33 7.98 6.66 9 7 C10.1875 10.5625 10.1875 10.5625 11 14 C8.35417813 11.47937475 6.09437372 8.72630305 3.8125 5.875 C3.09707031 4.98554687 2.38164062 4.09609375 1.64453125 3.1796875 C0 1 0 1 0 0 Z " fill="#582B25" transform="translate(266,95)"/>
<path d="M0 0 C5.02709507 1.57096721 9.02866469 4.61993049 13 8 C13 8.33 13 8.66 13 9 C11.35 9 9.7 9 8 9 C7.67 8.01 7.34 7.02 7 6 C5.37051936 4.77554716 5.37051936 4.77554716 3.4375 3.8125 C2.303125 3.214375 1.16875 2.61625 0 2 C0 1.34 0 0.68 0 0 Z " fill="#DB4F4A" transform="translate(251,84)"/>
<path d="M0 0 C0.33 0 0.66 0 1 0 C1.19294408 4.82360189 0.75747614 8.49646738 -1 13 C-1.66 13 -2.32 13 -3 13 C-2.45144652 8.428721 -1.58255197 4.32564205 0 0 Z " fill="#DD554E" transform="translate(6,117)"/>
<path d="M0 0 C0.33 1.32 0.66 2.64 1 4 C1.99 4.33 2.98 4.66 4 5 C4.33 5.99 4.66 6.98 5 8 C4.34 8 3.68 8 3 8 C2.67 8.66 2.34 9.32 2 10 C1.34 10 0.68 10 0 10 C0 6.7 0 3.4 0 0 Z " fill="#2F2C2A" transform="translate(266,85)"/>
<path d="M0 0 C-3.11910856 1.79275866 -5.67682428 2.34290718 -9.25 2.625 C-10.14203125 2.69976562 -11.0340625 2.77453125 -11.953125 2.8515625 C-12.62859375 2.90054687 -13.3040625 2.94953125 -14 3 C-13 1 -13 1 -9.8125 -0.1875 C-6.03923017 -0.99163947 -3.70527523 -0.90372567 0 0 Z " fill="#D65347" transform="translate(233,494)"/>
<path d="M0 0 C2.39763185 2.39763185 2.34280586 3.33273498 2.625 6.625 C2.69976562 7.44226563 2.77453125 8.25953125 2.8515625 9.1015625 C2.92503906 10.04128906 2.92503906 10.04128906 3 11 C0.47650757 7.87567603 -1.27256146 4.61939504 -3 1 C-2.01 0.67 -1.02 0.34 0 0 Z " fill="#542D2B" transform="translate(278,277)"/>
<path d="M0 0 C3.09592835 3.5087188 4.74194623 6.49197399 6 11 C5.01 10.67 4.02 10.34 3 10 C3 8.68 3 7.36 3 6 C2.34 6 1.68 6 1 6 C0.67 4.02 0.34 2.04 0 0 Z " fill="#D04F46" transform="translate(274,106)"/>
<path d="M0 0 C-3.90028225 2.60018816 -7.47434569 2.15085514 -12 2 C-7.89783794 -0.73477471 -4.73617773 -1.57872591 0 0 Z " fill="#DE5349" transform="translate(66,75)"/>
<path d="M0 0 C2.31 0.66 4.62 1.32 7 2 C5.68 3.32 4.36 4.64 3 6 C1.5 4.6875 1.5 4.6875 0 3 C0 2.01 0 1.02 0 0 Z " fill="#EA665F" transform="translate(260,474)"/>
<path d="M0 0 C0 1.65 0 3.3 0 5 C-1.98 5.99 -1.98 5.99 -4 7 C-4 6.34 -4 5.68 -4 5 C-3.34 5 -2.68 5 -2 5 C-2 4.34 -2 3.68 -2 3 C-2.66 3 -3.32 3 -4 3 C-4 2.34 -4 1.68 -4 1 C-1 0 -1 0 0 0 Z " fill="#E84E44" transform="translate(262,476)"/>
<path d="M0 0 C0.66 0.66 1.32 1.32 2 2 C1.67 2.99 1.34 3.98 1 5 C0.34 5 -0.32 5 -1 5 C-1.33 5.66 -1.66 6.32 -2 7 C-2.33 5.35 -2.66 3.7 -3 2 C-2.01 1.34 -1.02 0.68 0 0 Z " fill="#EB574E" transform="translate(4,412)"/>
</svg>
